<svg width="192" height="192" viewBox="0 0 192 192" fill="none" xmlns="http://www.w3.org/2000/svg">
<path d="M64 24C41.944 24 24 41.944 24 64V128C24 150.056 41.944 168 64 168H128C150.056 168 168 150.056 168 128V64C168 41.944 150.056 24 128 24H64ZM64 40H128C141.232 40 152 50.768 152 64V128C152 141.232 141.232 152 128 152H64C50.768 152 40 141.232 40 128V64C40 50.768 50.768 40 64 40ZM136 48C133.878 48 131.843 48.8429 130.343 50.3431C128.843 51.8434 128 53.8783 128 56C128 58.1217 128.843 60.1566 130.343 61.6569C131.843 63.1571 133.878 64 136 64C138.122 64 140.157 63.1571 141.657 61.6569C143.157 60.1566 144 58.1217 144 56C144 53.8783 143.157 51.8434 141.657 50.3431C140.157 48.8429 138.122 48 136 48ZM96 56C73.944 56 56 73.944 56 96C56 118.056 73.944 136 96 136C118.056 136 136 118.056 136 96C136 73.944 118.056 56 96 56ZM96 72C109.232 72 120 82.768 120 96C120 109.232 109.232 120 96 120C82.768 120 72 109.232 72 96C72 82.768 82.768 72 96 72Z" fill="#254E5A"/>
</svg>
