<svg width="193" height="193" viewBox="0 0 193 193" fill="none" xmlns="http://www.w3.org/2000/svg">
<path d="M53.5007 58.3027C46.7128 58.3027 41.2148 63.8007 41.2148 70.5886V156.59C41.2148 163.378 46.7128 168.876 53.5007 168.876H139.502C146.29 168.876 151.788 163.378 151.788 156.59V70.5886C151.788 63.8007 146.29 58.3027 139.502 58.3027H53.5007ZM53.5007 70.5886H139.502V156.59H53.5007V70.5886ZM70.5738 78.6752C65.3093 78.6752 62.1512 81.8399 62.1512 86.0539C62.1512 90.268 65.3097 93.4207 70.0459 93.4207C75.3104 93.4207 78.4684 90.268 78.4684 86.0539C78.4684 81.8399 75.31 78.6752 70.5738 78.6752ZM62.5712 101.303V144.304H78.0725V101.303H62.5712ZM90.8623 101.303V144.304H106.364V120.8C106.364 113.803 111.356 112.797 112.854 112.797C114.353 112.797 118.362 114.301 118.362 120.8V144.304H133.359V120.8C133.359 107.304 127.362 101.303 119.861 101.303C112.361 101.303 108.36 103.801 106.364 107.302V101.303H90.8623Z" fill="#254E5A"/>
</svg>
