<svg width="738" height="271" viewBox="0 0 738 271" fill="none" xmlns="http://www.w3.org/2000/svg">
<path d="M138.441 78.6486C138.441 74.1271 139.206 69.7098 140.737 65.397C142.337 61.0145 144.632 57.0494 147.623 53.5017C150.615 49.8845 154.301 47.0324 158.684 44.9455C163.066 42.7891 168.04 41.7109 173.605 41.7109C180.213 41.7109 185.848 43.2412 190.509 46.302C195.239 49.2932 198.717 53.1539 200.943 57.8842L195.204 61.4319C193.604 58.1624 191.587 55.5886 189.152 53.7104C186.718 51.7627 184.109 50.3714 181.326 49.5367C178.613 48.7019 175.901 48.2845 173.188 48.2845C168.736 48.2845 164.805 49.1889 161.397 50.9975C157.988 52.7366 155.101 55.1017 152.736 58.0929C150.441 61.0145 148.702 64.3187 147.519 68.0056C146.336 71.6228 145.745 75.3096 145.745 79.066C145.745 83.1702 146.441 87.1005 147.832 90.8569C149.223 94.6133 151.171 97.9523 153.675 100.874C156.18 103.726 159.101 106.022 162.44 107.761C165.849 109.431 169.536 110.265 173.501 110.265C176.283 110.265 179.135 109.778 182.057 108.804C184.978 107.831 187.691 106.335 190.196 104.318C192.769 102.3 194.822 99.6914 196.352 96.4915L202.404 99.6218C200.874 103.309 198.508 106.439 195.309 109.013C192.109 111.587 188.526 113.535 184.561 114.856C180.666 116.178 176.84 116.839 173.083 116.839C168.005 116.839 163.344 115.761 159.101 113.604C154.858 111.378 151.171 108.457 148.041 104.839C144.98 101.153 142.615 97.048 140.945 92.5264C139.276 87.9353 138.441 83.3093 138.441 78.6486ZM236.815 42.1282H242.971L273.752 116.213H266.031L256.431 93.0481H223.146L213.65 116.213H205.824L236.815 42.1282ZM254.762 87.3092L239.841 50.6845L224.711 87.3092H254.762Z" fill="black"/>
<path d="M345.775 115.775H338.889L328.454 89.4807L317.916 115.775H310.925L323.863 84.1592L309.672 50.6648L282.856 116.297H274.926L306.333 42.2129H312.803L328.35 78.8376L344.002 42.2129H350.367L381.67 116.297H373.844L346.923 50.6648L332.837 84.1592L345.775 115.775Z" fill="black"/>
<path d="M393.84 116.213V42.1289H401.144V116.213H393.84ZM419.723 116.213V42.1289H427.027V109.744H469.808V116.213H419.723ZM480.556 116.213V42.1289H487.86V109.744H530.641V116.213H480.556ZM564.345 42.1289H570.501L601.283 116.213H593.561L583.962 93.0488H550.676L541.181 116.213H533.355L564.345 42.1289ZM582.292 87.3099L567.371 50.6852L552.241 87.3099H582.292Z" fill="black"/>
<path d="M20.6875 192.497C20.6875 187.975 21.4527 183.558 22.9831 179.245C24.583 174.863 26.8786 170.897 29.8698 167.35C32.861 163.733 36.5478 160.88 40.9303 158.794C45.3127 156.637 50.2865 155.559 55.8515 155.559C62.4599 155.559 68.0945 157.089 72.7552 160.15C77.4855 163.141 80.9636 167.002 83.1896 171.732L77.4507 175.28C75.8507 172.01 73.8334 169.437 71.3987 167.558C68.964 165.611 66.3554 164.219 63.5729 163.385C60.86 162.55 58.147 162.133 55.4341 162.133C50.9821 162.133 47.0518 163.037 43.6432 164.846C40.2346 166.585 37.3478 168.95 34.9827 171.941C32.6871 174.863 30.948 178.167 29.7655 181.854C28.5829 185.471 27.9916 189.158 27.9916 192.914C27.9916 197.018 28.6872 200.949 30.0785 204.705C31.4697 208.461 33.4175 211.8 35.9218 214.722C38.426 217.574 41.3476 219.87 44.6867 221.609C48.0952 223.278 51.782 224.113 55.7471 224.113C58.5296 224.113 61.3817 223.626 64.3033 222.652C67.225 221.678 69.9379 220.183 72.4422 218.165C75.016 216.148 77.0681 213.539 78.5985 210.34L84.6504 213.47C83.12 217.157 80.7549 220.287 77.555 222.861C74.3551 225.435 70.7727 227.382 66.8076 228.704C62.9121 230.026 59.0861 230.687 55.3297 230.687C50.2517 230.687 45.591 229.608 41.3476 227.452C37.1043 225.226 33.4175 222.304 30.2872 218.687C27.2264 215 24.8613 210.896 23.1918 206.374C21.5223 201.783 20.6875 197.157 20.6875 192.497ZM146.896 223.591V230.061H97.1244V155.976H145.957V162.446H104.428V189.158H140.635V195.314H104.428V223.591H146.896ZM168.013 169.437V230.061H160.709V155.976H166.761L215.385 217.748V156.081H222.689V230.061H215.907L168.013 169.437ZM293.9 162.446H267.501V230.061H260.197V162.446H233.798V155.976H293.9V162.446ZM354.769 223.591V230.061H304.997V155.976H353.83V162.446H312.301V189.158H348.508V195.314H312.301V223.591H354.769ZM368.581 230.061V155.976H399.885C403.085 155.976 406.006 156.637 408.65 157.959C411.293 159.281 413.588 161.089 415.536 163.385C417.554 165.611 419.084 168.115 420.127 170.897C421.24 173.61 421.797 176.393 421.797 179.245C421.797 182.793 421.101 186.132 419.71 189.262C418.388 192.392 416.475 195.036 413.971 197.192C411.536 199.349 408.65 200.775 405.311 201.47L423.466 230.061H415.223L397.798 202.722H375.886V230.061H368.581ZM375.886 196.253H400.093C403.015 196.253 405.554 195.453 407.71 193.853C409.867 192.253 411.536 190.166 412.719 187.593C413.902 184.949 414.493 182.167 414.493 179.245C414.493 176.254 413.797 173.506 412.406 171.002C411.084 168.428 409.276 166.376 406.98 164.846C404.754 163.246 402.25 162.446 399.467 162.446H375.886V196.253ZM462.675 156.498H469.562L479.996 182.793L490.535 156.498H497.526L484.588 188.114L498.778 221.609L525.595 155.976H533.525L502.117 230.061H495.648L480.101 193.436L464.449 230.061H458.084L426.781 155.976H434.607L461.527 221.609L475.614 188.114L462.675 156.498ZM560.689 155.976H566.845L597.626 230.061H589.905L580.305 206.896H547.019L537.524 230.061H529.698L560.689 155.976ZM578.636 201.157L563.715 164.533L548.585 201.157H578.636ZM608.247 230.061V155.976H615.551V223.591H658.332V230.061H608.247ZM669.08 230.061V155.976H676.384V223.591H719.165V230.061H669.08Z" fill="black"/>
</svg>
