<svg width="1061" height="205" viewBox="0 0 1061 205" fill="none" xmlns="http://www.w3.org/2000/svg">
<path d="M0.738281 201.311V5.89723H81.6705C90.1124 5.89723 97.8202 7.64031 104.794 11.1269C111.951 14.613 118.099 19.3837 123.238 25.4387C128.376 31.3102 132.414 37.9157 135.35 45.2552C138.286 52.4112 139.755 59.7507 139.755 67.2739C139.755 77.9159 137.369 88.008 132.597 97.5492C128.009 106.907 121.494 114.522 113.052 120.393C104.611 126.265 94.7003 129.2 83.3221 129.2H20.0078V201.311H0.738281ZM20.0078 112.137H82.4961C90.2043 112.137 96.9028 110.026 102.592 105.806C108.281 101.586 112.686 96.0812 115.805 89.292C118.925 82.5034 120.485 75.1638 120.485 67.2739C120.485 59.2003 118.65 51.7689 114.979 44.9802C111.309 38.1911 106.446 32.8701 100.39 29.0167C94.517 24.9801 88.0018 22.9616 80.8445 22.9616H20.0078V112.137ZM226.552 204.064C216.275 204.064 206.732 202.137 197.923 198.283C189.297 194.247 181.773 188.834 175.349 182.045C169.11 175.073 164.247 167.183 160.76 158.375C157.273 149.384 155.529 139.935 155.529 130.026C155.529 119.751 157.273 110.21 160.76 101.402C164.247 92.4114 169.202 84.5214 175.625 77.7327C182.048 70.76 189.572 65.3472 198.198 61.4938C207.007 57.4572 216.55 55.4387 226.827 55.4387C237.104 55.4387 246.556 57.4572 255.181 61.4938C263.806 65.3472 271.331 70.76 277.754 77.7327C284.177 84.5214 289.132 92.4114 292.619 101.402C296.106 110.21 297.849 119.751 297.849 130.026C297.849 139.935 296.106 149.384 292.619 158.375C289.132 167.183 284.177 175.073 277.754 182.045C271.514 188.834 263.99 194.247 255.181 198.283C246.556 202.137 237.013 204.064 226.552 204.064ZM174.524 130.302C174.524 140.944 176.818 150.669 181.406 159.476C186.178 168.1 192.509 174.981 200.4 180.118C208.292 185.072 217.009 187.55 226.552 187.55C236.095 187.55 244.812 184.981 252.704 179.843C260.595 174.705 266.926 167.733 271.698 158.925C276.469 149.935 278.855 140.21 278.855 129.751C278.855 119.109 276.469 109.384 271.698 100.577C266.926 91.7692 260.595 84.7968 252.704 79.659C244.812 74.5216 236.095 71.9527 226.552 71.9527C217.009 71.9527 208.292 74.6134 200.4 79.9344C192.692 85.2555 186.453 92.3196 181.681 101.127C176.91 109.751 174.524 119.476 174.524 130.302ZM400.728 74.4298C388.25 74.7966 377.239 78.2832 367.697 84.8887C358.337 91.4942 351.727 100.577 347.875 112.137V201.311H329.156V57.9158H346.774V92.3196C351.727 82.2279 358.244 74.063 366.318 67.8243C374.578 61.5856 383.295 58.0994 392.468 57.3654C394.305 57.1818 395.866 57.0904 397.149 57.0904C398.617 57.0904 399.81 57.1818 400.728 57.3654V74.4298ZM690.817 204.064C680.543 204.064 670.996 202.137 662.19 198.283C653.562 194.247 646.039 188.834 639.615 182.045C633.378 175.073 628.512 167.183 625.025 158.375C621.538 149.384 619.795 139.935 619.795 130.026C619.795 119.751 621.538 110.21 625.025 101.402C628.512 92.4114 633.467 84.5214 639.89 77.7327C646.314 70.76 653.837 65.3472 662.465 61.4938C671.271 57.4572 680.818 55.4387 691.092 55.4387C701.37 55.4387 710.823 57.4572 719.447 61.4938C728.071 65.3472 735.599 70.76 742.018 77.7327C748.442 84.5214 753.397 92.4114 756.884 101.402C760.37 110.21 762.114 119.751 762.114 130.026C762.114 139.935 760.37 149.384 756.884 158.375C753.397 167.183 748.442 175.073 742.018 182.045C735.781 188.834 728.257 194.247 719.447 198.283C710.823 202.137 701.277 204.064 690.817 204.064ZM638.79 130.302C638.79 140.944 641.084 150.669 645.671 159.476C650.444 168.1 656.774 174.981 664.666 180.118C672.558 185.072 681.275 187.55 690.817 187.55C700.363 187.55 709.08 184.981 716.972 179.843C724.859 174.705 731.194 167.733 735.963 158.925C740.736 149.935 743.123 140.21 743.123 129.751C743.123 119.109 740.736 109.384 735.963 100.577C731.194 91.7692 724.859 84.7968 716.972 79.659C709.08 74.5216 700.363 71.9527 690.817 71.9527C681.275 71.9527 672.558 74.6134 664.666 79.9344C656.96 85.2555 650.719 92.3196 645.946 101.127C641.177 109.751 638.79 119.476 638.79 130.302ZM794.248 0.392578H812.968V168.834C812.968 175.99 814.251 180.669 816.823 182.871C819.392 185.072 822.511 186.173 826.179 186.173C829.484 186.173 832.789 185.806 836.089 185.072C839.394 184.338 842.238 183.605 844.624 182.871L847.929 198.008C844.442 199.476 840.126 200.669 834.989 201.586C830.034 202.504 825.722 202.963 822.054 202.963C813.612 202.963 806.82 200.486 801.683 195.531C796.728 190.577 794.248 183.788 794.248 175.164V0.392578ZM868.427 201.311V57.9158H887.143V201.311H868.427ZM868.427 27.9158V0.392578H887.143V27.9158H868.427ZM989.487 204.064C979.208 204.064 969.666 202.137 960.856 198.283C952.232 194.247 944.709 188.834 938.285 182.045C932.044 175.073 927.182 167.183 923.695 158.375C920.208 149.384 918.465 139.935 918.465 130.026C918.465 119.751 920.208 110.21 923.695 101.402C927.182 92.4114 932.137 84.5214 938.56 77.7327C944.984 70.76 952.507 65.3472 961.131 61.4938C969.941 57.4572 979.483 55.4387 989.762 55.4387C1000.04 55.4387 1009.49 57.4572 1018.12 61.4938C1026.74 65.3472 1034.26 70.76 1040.69 77.7327C1047.11 84.5214 1052.07 92.4114 1055.55 101.402C1059.04 110.21 1060.78 119.751 1060.78 130.026C1060.78 139.935 1059.04 149.384 1055.55 158.375C1052.07 167.183 1047.11 175.073 1040.69 182.045C1034.45 188.834 1026.92 194.247 1018.12 198.283C1009.49 202.137 999.947 204.064 989.487 204.064ZM937.46 130.302C937.46 140.944 939.754 150.669 944.341 159.476C949.114 168.1 955.444 174.981 963.336 180.118C971.228 185.072 979.945 187.55 989.487 187.55C999.029 187.55 1007.75 184.981 1015.64 179.843C1023.53 174.705 1029.86 167.733 1034.63 158.925C1039.41 149.935 1041.79 140.21 1041.79 129.751C1041.79 119.109 1039.41 109.384 1034.63 100.577C1029.86 91.7692 1023.53 84.7968 1015.64 79.659C1007.75 74.5216 999.029 71.9527 989.487 71.9527C979.945 71.9527 971.228 74.6134 963.336 79.9344C955.626 85.2555 949.389 92.3196 944.616 101.127C939.842 109.751 937.46 119.476 937.46 130.302Z" fill="#444240"/>
<path d="M611.969 12.872C610.501 12.3216 608.207 11.3126 605.089 9.8445C601.97 8.37642 598.208 7.09196 593.803 5.99111C589.398 4.89027 584.625 4.33984 579.488 4.33984C574.165 4.33984 569.117 5.34888 564.348 7.36738C559.761 9.38588 556.088 12.4134 553.337 16.45C550.583 20.6702 549.207 25.808 549.207 31.8631V134.524H529.387V149.386H549.207V197.827H567.928V149.386H600.959V134.524H567.928V37.0923C568.291 31.9545 570.128 28.1015 573.433 25.5326C576.92 22.9637 580.863 21.6792 585.268 21.6792C590.405 21.6792 595.085 22.5051 599.309 24.1563C603.527 25.9912 606.096 27.2757 607.014 28.0097L611.969 12.872Z" fill="#444240"/>
<path d="M508.739 194.422C507.27 194.972 504.977 195.982 501.858 197.45C498.735 198.917 494.974 200.202 490.569 201.303C486.168 202.404 481.395 202.954 476.258 202.954C470.934 202.954 465.886 201.945 461.117 199.927C456.526 197.908 452.857 194.881 450.102 190.844C447.352 186.624 445.977 181.486 445.977 175.431V72.7701H426.156V57.9074H445.977V9.4668H464.693V57.9074H497.728V72.7701H464.693V170.202C465.061 175.339 466.897 179.193 470.198 181.761C473.685 184.33 477.633 185.614 482.038 185.614C487.175 185.614 491.855 184.789 496.078 183.137C500.297 181.302 502.865 180.018 503.784 179.284L508.739 194.422Z" fill="#444240"/>
</svg>
